<svg width="68" height="68" viewBox="0 0 68 68" fill="none" xmlns="http://www.w3.org/2000/svg">
<circle cx="34" cy="34" r="34" fill="#E9E9EC"/>
<path d="M24.95 42.3935L40.1614 48.7497V33.2667L24.95 27.6167V42.3935Z" fill="#0B7572"/>
<path d="M51.8438 34.2992L47.6064 35.8203V31.5285L42.0107 33.4843V48.75L57.7654 42.3938V27.8887L51.8438 30.0074V34.2992ZM46.7915 45.2732L46.1396 45.5448V42.1222L46.7915 41.9049V45.2732ZM47.9323 44.8385L47.2804 45.1102V41.6876L47.9323 41.4703V44.8385ZM50.214 43.915L49.5621 44.1323V40.7641L50.214 40.5467V43.915ZM51.3549 43.426L50.703 43.6977V40.3838L51.3549 40.1665V43.426ZM53.6366 39.2429L54.2885 39.0256V42.2309L53.6366 42.5025V39.2429ZM52.3328 39.7319L52.9847 39.5145V42.7741L52.3328 43.0458V39.7319Z" fill="#0B7572"/>
<path d="M51.8423 27.8887L57.7639 25.7156L41.3573 19.957L36.0876 21.8041L51.8423 27.78V27.8887Z" fill="#0B7572"/>
<path d="M31.4148 23.4336L24.95 25.7153L41.3566 31.6912L47.5498 29.4638L31.4148 23.4336Z" fill="#0B7572"/>
<path d="M8.87036 40.981H22.3433V38.2646H10.1199L8.87036 40.981Z" fill="#0B7572"/>
<path d="M11.0986 36.2007H22.3442V33.4844H12.3481L11.0986 36.2007Z" fill="#0B7572"/>
<path d="M13.3252 31.2568V31.4741H22.3434V28.7578H14.5204L13.3252 31.2568Z" fill="#0B7572"/>
</svg>
